# xmcd CD database file
#
# Track frame offsets:
#	150
#	19192
#	30947
#	49310
#	54247
#	60210
#	71447
#	76040
#	79717
#	82575
#	94697
#	100365
#	117972
#	136987
#	154225
#	168437
#	186032
#	197407
#	201450
#	204155
#	216150
#	228297
#	240005
#	251227
#	268772
#	275637
#	285502
#	292422
#
# Disc length: 4019 seconds
#
# Revision: 0
# Processed by: cddbd v1.5.1PL0 Copyright (c) Steve Scherf et al.
# Submitted via: CDex 1.40Release
#
DISCID=7c0fb11c
DTITLE=Plavci - Plavci na Porici
DYEAR=1900
DGENRE=Country
TTITLE0=Predstavovaci pisen 
TTITLE1=Podle mlýna cesta 
TTITLE2=Lenka 
TTITLE3=Zvednete kotvy 
TTITLE4=Tece voda 
TTITLE5=Mam radost 
TTITLE6=Nos pro trable 
TTITLE7=Coz takhle dat si spenat 
TTITLE8=Gvendolina 
TTITLE9=C'est la vie 
TTITLE10=Kvety dej 
TTITLE11=Snadne
TTITLE12=Destiva nalada 
TTITLE13=Frantiska a Jenik 
TTITLE14=Pes suveren 
TTITLE15=S namahou 
TTITLE16=Yakety yak 
TTITLE17=Najdi ton
TTITLE18=Uvod koncertu 
TTITLE19=Tricentova opera 
TTITLE20=Pruvodni slovo 
TTITLE21=Sest svicek 
TTITLE22=Vim, vim 
TTITLE23=Pole s bavlnou 
TTITLE24=Pojd ven 
TTITLE25=Marjanka 
TTITLE26=Pruvodni slovo 
TTITLE27=Pojd dal
EXTD=ID3G: 2
EXTT0=
EXTT1=
EXTT2=
EXTT3=
EXTT4=
EXTT5=
EXTT6=
EXTT7=
EXTT8=
EXTT9=
EXTT10=
EXTT11=
EXTT12=
EXTT13=
EXTT14=
EXTT15=
EXTT16=
EXTT17=
EXTT18=
EXTT19=
EXTT20=
EXTT21=
EXTT22=
EXTT23=
EXTT24=
EXTT25=
EXTT26=
EXTT27=
PLAYORDER=
